<!-- Generated by IcoMoon.io -->
<svg version="1.1" xmlns="http://www.w3.org/2000/svg" width="512" height="512" viewBox="0 0 512 512">
<title></title>
<g id="icomoon-ignore">
</g>
<path d="M192 0v192l-71.765-71.765c-36.263 36.265-56.235 84.48-56.235 135.765s19.972 99.5 56.235 135.765c36.265 36.263 84.48 56.235 135.765 56.235s99.5-19.972 135.765-56.235c36.263-36.265 56.235-84.48 56.235-135.765s-19.972-99.5-56.236-135.764c-3.027-3.028-6.146-5.93-9.334-8.728l42.141-48.16c53.583 46.923 87.429 115.832 87.429 192.652 0 141.385-114.615 256-256 256s-256-114.615-256-256c0-70.693 28.663-134.684 74.992-181.008l-74.992-74.992h192z"></path>
</svg>
